<?xml version="1.0" encoding="utf-8"?>
<!-- Generator: Adobe Illustrator 20.1.0, SVG Export Plug-In . SVG Version: 6.00 Build 0)  -->
<svg version="1.1" id="Layer_1" xmlns="http://www.w3.org/2000/svg" xmlns:xlink="http://www.w3.org/1999/xlink" x="0px" y="0px"
	 viewBox="0 0 1142 255.9" style="enable-background:new 0 0 1142 255.9;" xml:space="preserve">
<style type="text/css">
	.st0{fill:#FFFFFF;}
</style>
<polygon class="st0" points="0,129.5 0,136.9 95.6,185.4 99.3,177.2 10.6,133.2 99.3,90.4 95.6,81.9 "/>
<path class="st0" d="M1042.7,90.4l88.7,42.8l-88.7,43.9l4,8.3l95.3-48.5v-7.4l-95.3-47.6L1042.7,90.4z M999.1,0l-66.2,253.6l8.8,2.3
	l66.2-253.6L999.1,0z"/>
<path class="st0" d="M544.3,166.7l-18.1-32.3h-5.6l-18.1,32.3h-19.7l40.6-72.5l40.6,72.5H544.3z M509.9,166.7l13.6-24.2l13.6,24.2
	H509.9z M572.4,168.3l-45.2-80.7l14-25.1l-5.6-3.1l-12,21.6l-12.2-21.6l-5.5,3.1l14.1,25.1l-45.2,80.7l2.8,4.7h92.2L572.4,168.3z"/>
<g>
	<path class="st0" d="M872.8,100.6c10.8,0,15.7,9,15.7,26.9c0,18.3-5.7,26.8-17.1,26.8c-6.5,0-12.1-3.3-15.8-8.6v-34.1
		C859.3,106,865.2,100.6,872.8,100.6 M875.4,91.7c-8.2,0-15.5,4-20.5,11.1l-0.9-9.7h-9.4v96.5l11-1.3v-32.8
		c4.7,5.2,10.7,7.8,18.3,7.8c17.9,0,26.5-15,26.5-35.9C900.3,105.9,893.7,91.7,875.4,91.7 M811.6,91.7c-6.9,0-11.4,3.7-15.1,9.1
		c-2.1-7-7.2-9.1-12.4-9.1c-6.9,0-11.2,4.2-14.9,9.5l-0.8-8.1h-8.5v68.8h10v-53.4c3.8-5.9,7.7-8.2,12-8.2c5,0,5.4,3.5,5.4,12.3v49.3
		h10.2v-53.4c3.8-5.9,7.8-8.2,12-8.2c5,0,5.4,3.5,5.4,12.3v49.3h10v-51.2C824.9,94.9,818.2,91.7,811.6,91.7 M708.9,155.1
		c-9,0-13.2-4.4-13.2-13.1c0-8.9,5.5-14.4,20.6-14.4h9.9v17.6C722.2,151.5,715.6,155.1,708.9,155.1 M737.3,146.9v-33
		c0-13.6-8.6-22.2-25.7-22.2c-6.8,0-14.1,1.3-22.6,4.3l3,8.4c7-2.5,13.3-3.5,17.9-3.5c10.2,0,16.3,3.7,16.3,13.7v5.6H716
		c-20.8,0-32.1,8-32.1,22.1c0,12.8,8.4,21.1,22.2,21.1c8.9,0,16.6-3.3,21.5-9.7c1.8,6.3,6.7,9,12.5,9.8l2.7-7.8
		C739,154.5,737.3,152.4,737.3,146.9 M640.9,153.9c-11.9,0-20.5-7.7-20.5-26.1c0-18.1,8.5-26.9,20.4-26.9c6.1,0,11.9,2.1,17.8,6
		l5.4-7.2c-6.4-5.4-14.1-8.1-23-8.1c-20.5,0-32.4,15.5-32.4,36.2c0,21.5,11.7,35.5,32.4,35.5c8,0,17.2-3.1,23.1-8.2l-5.2-7.2
		C653.5,151.5,647.8,153.9,640.9,153.9"/>
	<path class="st0" d="M411.8,100.7c10.4,0,17,7.6,17.2,22.3h-35.8C394.1,107.9,401.6,100.7,411.8,100.7 M393.2,131.4h46.2
		c0.1-1.4,0.3-3.5,0.3-5.9c0-20.9-10.7-33.8-28.1-33.8c-18.3,0-29.9,15.1-29.9,35.9c0,21.4,11.4,35.8,31.5,35.8c8.5,0,17.1-3,23.5-8
		l-5.1-7.3c-6.1,4-11.4,6.1-18.4,6.1C402.6,154.2,393.8,147.3,393.2,131.4 M331.8,100.6c6.4,0,11.9,3.3,15.7,8.9v34.2
		c-3.8,5.7-9.1,11-17,11c-10.8,0-16.6-9.1-16.6-27C313.9,109.4,320.4,100.6,331.8,100.6 M347.4,64.1v35.8
		c-4.7-5.4-10.6-8.2-18.5-8.2c-16.8,0-26.9,15.3-26.9,35.9c0,21.4,8.2,35.8,26.2,35.8c7.4,0,14.4-3.3,19.4-10.4l1,9h9.7V65.4
		L347.4,64.1z M254.1,100.7c11.7,0,17.6,8.6,17.6,26.8c0,18.4-5.9,26.9-17.8,26.9c-11.9,0-17.8-8.5-17.8-26.8
		S242.2,100.7,254.1,100.7 M254.1,91.7c-19.3,0-29.8,14.7-29.8,35.9c0,21.7,10.3,35.8,29.6,35.8c19.2,0,29.6-14.7,29.6-35.9
		C283.6,105.8,273.4,91.7,254.1,91.7 M180.8,153.9c-11.9,0-20.5-7.7-20.5-26.1c0-18.1,8.5-26.9,20.4-26.9c6.1,0,11.9,2.1,17.8,6
		l5.4-7.2c-6.4-5.4-14.1-8.1-23-8.1c-20.5,0-32.4,15.5-32.4,36.2c0,21.5,11.7,35.5,32.4,35.5c8,0,17.2-3.1,23.1-8.2l-5.2-7.2
		C193.4,151.5,187.7,153.9,180.8,153.9"/>
</g>
</svg>
